<?xml version="1.0" encoding="utf-8"?>
<!-- Generator: Adobe Illustrator 24.3.0, SVG Export Plug-In . SVG Version: 6.00 Build 0)  -->
<svg version="1.1" id="Capa_1" xmlns="http://www.w3.org/2000/svg" xmlns:xlink="http://www.w3.org/1999/xlink" x="0px" y="0px"
	 viewBox="0 0 300 200" style="enable-background:new 0 0 300 200;" xml:space="preserve">
<style type="text/css">
	.st0{fill:orange;}
	.st1{fill:#D8A8CE;}
	.st2{fill:url(#SVGID_1_);}
</style>
<g>
	<g>
		<path class="st0" d="M57.82,21.58c-9.7,8.1-16.31,19.66-18.35,32.13c-0.14,0.88,0.34,1.47,1.21,1.58
			c14.32,1.89,28.42-2.89,42.05-6.62c14.26-3.9,28.59-7.54,42.97-10.93c8.09-1.91,16.19-3.73,24.32-5.48
			c-0.47-0.61-0.94-1.22-1.41-1.84c-9.94,18.82-24.85,34.89-42.85,46.26c-5.07,3.2-10.37,6.02-15.86,8.44
			c-1.31,0.58-0.37,2.66,0.96,2.28c22.62-6.42,46.34-8.7,69.77-6.66c1.34,0.12,2.69,0.25,4.03,0.39c1.15,0.12,2.58,0.11,3.64,0.64
			c1.41,0.71,0.2,2.27-0.35,3.21c-0.67,1.14-1.35,2.27-2.05,3.39c-2.69,4.33-5.54,8.55-8.07,12.97c-2.45,4.27-4.64,8.76-5.93,13.53
			c-0.64,2.34-1.13,4.81-1.21,7.24c-0.07,2.09,0.65,4.24,2.83,4.92c2.21,0.69,4.97-0.05,7.17-0.45c2.84-0.51,5.63-1.23,8.38-2.08
			c5.4-1.68,10.62-3.88,15.79-6.17c10.79-4.78,21.43-9.91,31.91-15.34c10.13-5.25,20.4-10.58,29.97-16.82
			c4.39-2.86,8.61-6.1,12.06-10.06c2.98-3.42,5.86-8.21,2.72-12.48c-2.68-3.64-7.72-4.81-11.86-5.83
			c-5.72-1.42-11.56-2.26-17.41-2.88c-11.8-1.24-23.69-1.88-35.54-2.26c-23.99-0.76-48.02-0.03-71.91,2.18
			c-11.89,1.1-23.74,2.57-35.54,4.4c-5.89,0.91-11.76,1.91-17.61,3.01c-2.97,0.55-5.94,1.12-8.9,1.73c-1.89,0.39-4.09,1.01-5.23,2.7
			c-3.06,4.52,4.04,7.98,6.95,9.84c4.71,3.02,9.47,5.95,14.27,8.81c9.67,5.76,19.52,11.23,29.47,16.5
			c19.94,10.56,40.29,20.32,60.6,30.14c20.24,9.79,40.47,19.64,60.23,30.39c4.85,2.64,9.66,5.33,14.44,8.08
			c0.1-0.76,0.2-1.52,0.3-2.28c-33.33,5.51-66.81-2.39-100.1-4.19c-8.64-0.47-17.45-0.38-25.55,3.06c-0.63,0.27-0.74,1.18-0.45,1.71
			c2.5,4.5,8.89,4.4,13.33,4.91c6.46,0.74,12.93,1.35,19.41,1.83c13.05,0.96,26.14,1.39,39.22,1.29c7.38-0.06,14.75-0.29,22.12-0.68
			c1.65-0.09,1.56-2.3,0-2.5c-28.9-3.73-57.61-9.37-85.47-17.97c-13.99-4.32-27.75-9.39-41.12-15.35
			c-6.56-2.92-13.09-5.99-19.4-9.43c-4.64-2.53-10.43-6.3-10.34-12.26c0.06-3.85,2.49-7.43,4.61-10.48
			c2.03-2.92,4.34-5.63,6.88-8.12C72.08,94.91,78.2,90.8,84.88,88c-0.41-0.7-0.81-1.39-1.22-2.09
			c-8.75,8.28-18.62,14.83-29.54,19.88c-9.49,4.39-19.31,8.03-28.41,13.25c-6.3,3.61-12.19,7.87-17.71,12.57
			c-1.16,0.99,0.32,2.51,1.51,1.96c5.77-2.65,11.63-5.06,17.7-6.95c4.61-1.44,9.24-2.77,13.75-4.51c7.52-2.89,14.78-6.43,22.09-9.81
			c7.88-3.64,15.74-7.32,23.56-11.08c15.78-7.59,31.4-15.56,46.55-24.36c15.05-8.75,29.57-18.36,43.76-28.43
			c14.13-10.02,27.95-20.47,41.72-30.98c1.75-1.33,3.49-2.66,5.24-4c-0.61-0.47-1.22-0.94-1.84-1.41
			c-2.33,12.75-3.7,25.66-4.04,38.62c-0.33,12.39,0,25.05,1.89,37.32c1.37,8.92,4.77,19.13,13.86,22.86
			c8.61,3.54,19.98-0.4,23.36-9.39c1.73-4.61,0-9.29-3.61-12.41c-3.85-3.33-8.79-5-13.56-6.54c-11.63-3.77-23.73-5.92-35.87-7.16
			c-12.39-1.26-24.85-1.55-37.3-1.59c-3.05-0.01-6.09-0.01-9.14,0.01c-2.47,0.01-5.01,0.01-7.4,0.7c-4.85,1.41-7.3,5.98-5.55,10.77
			c1.8,4.94,6.09,8.38,10.16,11.44c4.32,3.25,8.98,6.04,13.73,8.61c9.64,5.22,19.75,9.59,29,15.52c2.28,1.46,4.51,3.02,6.64,4.7
			c0.29-0.71,0.59-1.42,0.88-2.13c-13.89,1.73-27.78,3.46-41.68,5.18c-2.46,0.31-4.8,0.74-6.72,2.45c-1.45,1.29-2.26,3.34-0.86,4.99
			c1.77,2.1,5.6,1.59,8.04,1.68c3.35,0.14,6.7,0.21,10.05,0.23c13.49,0.09,26.99-0.75,40.37-2.5c12.13-1.58,24.5-3.53,36.19-7.23
			c10.51-3.32,21.09-8.84,26.38-18.99c0.74-1.43-1.41-2.69-2.16-1.26c-4.35,8.35-12.59,13.4-21.18,16.58
			c-10.21,3.78-21.19,5.67-31.9,7.35c-12.29,1.93-24.7,3.07-37.13,3.43c-6.19,0.18-12.38,0.17-18.56-0.04
			c-1.55-0.05-3.09-0.12-4.64-0.19c-0.8-0.04-3.45,0.2-3.69-0.92c-0.14-0.68,0.8-1.36,1.28-1.69c0.96-0.67,2.07-1.06,3.22-1.24
			c7.08-1.09,14.25-1.78,21.36-2.66c7.21-0.9,14.42-1.79,21.63-2.69c0.92-0.11,1.84-1.38,0.88-2.13
			c-16.01-12.61-36.43-18.05-52.17-31.03c-3.26-2.69-8.19-7.1-7.12-11.9c1.13-5.03,8.05-4.54,11.93-4.55
			c11.46-0.03,22.93,0.02,34.38,0.7c11.5,0.69,22.99,2.03,34.23,4.63c5.55,1.28,11.06,2.86,16.41,4.82
			c3.84,1.41,8.19,3.45,10.43,7.05c2.71,4.35,0.44,9.43-3.15,12.49c-3.26,2.77-7.71,4.02-11.94,3.64
			c-9.58-0.85-14.15-10.07-15.97-18.43c-1.1-5.06-1.51-10.27-1.9-15.42c-0.45-6.02-0.68-12.05-0.69-18.09
			c-0.02-12.13,0.84-24.26,2.6-36.26c0.43-2.9,0.91-5.79,1.44-8.67c0.17-0.93-0.88-2.14-1.84-1.41
			c-13.84,10.56-27.68,21.12-41.8,31.29c-14.04,10.11-28.38,19.84-43.22,28.74c-15.02,9.01-30.55,17.14-46.28,24.83
			c-7.87,3.85-15.8,7.59-23.75,11.29c-7.81,3.64-15.59,7.42-23.54,10.74c-9.84,4.11-20.25,6.5-30.08,10.68
			c-1.92,0.82-3.82,1.67-5.71,2.54c0.5,0.65,1.01,1.31,1.51,1.96c9.21-7.85,19.46-13.92,30.5-18.82c9.53-4.23,19.25-8,28.13-13.55
			c6.13-3.83,11.79-8.35,17.04-13.32c0.85-0.81-0.03-2.59-1.22-2.09c-11.99,5.04-23,14.14-29.15,25.75
			c-1.62,3.06-2.66,6.49-1.85,9.96c0.63,2.71,2.33,5.06,4.34,6.93c2.21,2.04,4.8,3.64,7.45,5.05c3.32,1.77,6.69,3.44,10.07,5.07
			c27.38,13.18,56.49,22.5,86.12,29.05c16.71,3.69,33.59,6.51,50.56,8.7c0-0.83,0-1.67,0-2.5c-24.99,1.33-50.08,0.74-74.98-1.81
			c-3.47-0.36-6.95-0.71-10.41-1.18c-2.39-0.32-5.25-0.83-6.53-3.12c-0.15,0.57-0.3,1.14-0.45,1.71c7.26-3.09,15.34-3.16,23.09-2.78
			c8.34,0.4,16.66,1.22,24.96,2.1c16.47,1.76,32.94,3.89,49.52,4.04c9.2,0.08,18.39-0.48,27.47-1.99c1.1-0.18,1.17-1.78,0.3-2.28
			c-18.99-10.94-38.55-20.85-58.23-30.49c-19.62-9.6-39.37-18.93-58.88-28.76c-19.46-9.81-38.69-20.13-57.17-31.69
			c-2.34-1.46-4.66-2.94-6.98-4.44c-1.28-0.83-5.42-2.93-3.8-4.96c1.3-1.63,4.67-1.75,6.53-2.12c2.79-0.55,5.59-1.09,8.4-1.6
			c11.52-2.1,23.11-3.86,34.74-5.25c23.14-2.77,46.45-4.14,69.76-4.11c11.57,0.02,23.13,0.38,34.68,1.09
			c11.52,0.71,23.22,1.38,34.48,4.07c3.75,0.9,9.85,1.91,11.73,5.86c1.16,2.43-0.24,5.01-1.71,6.96c-1.57,2.08-3.45,3.94-5.4,5.65
			c-3.86,3.39-8.23,6.15-12.65,8.75c-4.81,2.83-9.68,5.54-14.58,8.21c-10.08,5.48-20.32,10.66-30.7,15.54
			c-10.18,4.78-20.54,9.87-31.53,12.48c-2.56,0.61-5.27,1.23-7.9,1.3c-1.27,0.03-2.14-0.36-2.3-1.72c-0.14-1.14,0.08-2.4,0.25-3.53
			c0.73-4.8,2.52-9.36,4.75-13.65c2.31-4.44,5.04-8.64,7.73-12.86c1.31-2.05,2.61-4.1,3.84-6.19c1.07-1.81,2.57-4.08,1.1-6.1
			c-1.18-1.61-3.39-1.76-5.21-1.96c-2.85-0.32-5.7-0.58-8.56-0.78c-5.72-0.39-11.46-0.53-17.19-0.41
			c-11.23,0.23-22.46,1.42-33.49,3.56c-5.46,1.06-10.88,2.36-16.23,3.88c0.32,0.76,0.64,1.52,0.96,2.28
			c19.74-8.72,37-22.69,49.83-40.03c3.65-4.93,6.91-10.14,9.78-15.57c0.52-0.99-0.34-2.07-1.41-1.84
			c-14.37,3.09-28.68,6.43-42.93,10.01c-6.96,1.75-13.89,3.56-20.82,5.43c-7,1.89-13.96,3.99-21.03,5.63
			c-7.84,1.82-15.87,2.91-23.9,1.86c0.4,0.53,0.8,1.05,1.21,1.58c1.98-12.1,8.3-23.17,17.71-31.03
			C60.82,22.31,59.05,20.55,57.82,21.58L57.82,21.58z"/>
	</g>
</g>
<rect x="48.09" y="32.99" class="st1" width="25.38" height="42.46"/>
<linearGradient id="SVGID_1_" gradientUnits="userSpaceOnUse" x1="172.8247" y1="113.6432" x2="252.9944" y2="113.6432">
	<stop  offset="7.448676e-03" style="stop-color:#FCEA10"/>
	<stop  offset="1" style="stop-color:#36A9E1"/>
</linearGradient>
<polygon class="st2" points="197.58,151.08 172.82,119.09 188.15,81.65 228.24,76.21 252.99,108.2 237.67,145.64 "/>
</svg>
