<?xml version="1.0" encoding="utf-8"?>
<!-- Generator: Adobe Illustrator 25.0.1, SVG Export Plug-In . SVG Version: 6.00 Build 0)  -->
<svg version="1.1" id="Capa_1" xmlns="http://www.w3.org/2000/svg" xmlns:xlink="http://www.w3.org/1999/xlink" x="0px" y="0px"
	 viewBox="0 0 300 200" style="enable-background:new 0 0 300 200;" xml:space="preserve">
<style type="text/css">
	.st0{fill:#FFA500;}
	.st1{fill:#D8A8CE;}
	.st2{fill:url(#SVGID_1_);}
</style>
<g>
	<g>
		<path class="st0" d="M57.8,21.6c-9.7,8.1-16.3,19.7-18.3,32.1c-0.1,0.9,0.3,1.5,1.2,1.6c14.3,1.9,28.4-2.9,42-6.6
			c14.3-3.9,28.6-7.5,43-10.9c8.1-1.9,16.2-3.7,24.3-5.5c-0.5-0.6-0.9-1.2-1.4-1.8c-9.9,18.8-24.8,34.9-42.8,46.3
			c-5.1,3.2-10.4,6-15.9,8.4c-1.3,0.6-0.4,2.7,1,2.3c22.6-6.4,46.3-8.7,69.8-6.7c1.3,0.1,2.7,0.2,4,0.4c1.1,0.1,2.6,0.1,3.6,0.6
			c1.4,0.7,0.2,2.3-0.4,3.2c-0.7,1.1-1.4,2.3-2.1,3.4c-2.7,4.3-5.5,8.6-8.1,13c-2.4,4.3-4.6,8.8-5.9,13.5c-0.6,2.3-1.1,4.8-1.2,7.2
			c-0.1,2.1,0.6,4.2,2.8,4.9c2.2,0.7,5-0.1,7.2-0.4c2.8-0.5,5.6-1.2,8.4-2.1c5.4-1.7,10.6-3.9,15.8-6.2c10.8-4.8,21.4-9.9,31.9-15.3
			c10.1-5.2,20.4-10.6,30-16.8c4.4-2.9,8.6-6.1,12.1-10.1c3-3.4,5.9-8.2,2.7-12.5c-2.7-3.6-7.7-4.8-11.9-5.8
			c-5.7-1.4-11.6-2.3-17.4-2.9c-11.8-1.2-23.7-1.9-35.5-2.3c-24-0.8-48,0-71.9,2.2c-11.9,1.1-23.7,2.6-35.5,4.4
			c-5.9,0.9-11.8,1.9-17.6,3c-3,0.5-5.9,1.1-8.9,1.7c-1.9,0.4-4.1,1-5.2,2.7c-3.1,4.5,4,8,7,9.8c4.7,3,9.5,5.9,14.3,8.8
			c9.7,5.8,19.5,11.2,29.5,16.5c19.9,10.6,40.3,20.3,60.6,30.1c20.2,9.8,40.5,19.6,60.2,30.4c4.9,2.6,9.7,5.3,14.4,8.1
			c0.1-0.8,0.2-1.5,0.3-2.3c-33.3,5.5-66.8-2.4-100.1-4.2c-8.6-0.5-17.4-0.4-25.6,3.1c-0.6,0.3-0.7,1.2-0.4,1.7
			c2.5,4.5,8.9,4.4,13.3,4.9c6.5,0.7,12.9,1.4,19.4,1.8c13.1,1,26.1,1.4,39.2,1.3c7.4-0.1,14.8-0.3,22.1-0.7c1.6-0.1,1.6-2.3,0-2.5
			c-28.9-3.7-57.6-9.4-85.5-18c-14-4.3-27.8-9.4-41.1-15.4c-6.6-2.9-13.1-6-19.4-9.4c-4.6-2.5-10.4-6.3-10.3-12.3
			c0.1-3.8,2.5-7.4,4.6-10.5c2-2.9,4.3-5.6,6.9-8.1c5.2-5.1,11.3-9.2,18-12c-0.4-0.7-0.8-1.4-1.2-2.1c-8.8,8.3-18.6,14.8-29.5,19.9
			c-9.5,4.4-19.3,8-28.4,13.2c-6.3,3.6-12.2,7.9-17.7,12.6c-1.2,1,0.3,2.5,1.5,2c5.8-2.6,11.6-5.1,17.7-6.9
			c4.6-1.4,9.2-2.8,13.8-4.5c7.5-2.9,14.8-6.4,22.1-9.8c7.9-3.6,15.7-7.3,23.6-11.1c15.8-7.6,31.4-15.6,46.6-24.4
			c15.1-8.8,29.6-18.4,43.8-28.4c14.1-10,27.9-20.5,41.7-31c1.8-1.3,3.5-2.7,5.2-4c-0.6-0.5-1.2-0.9-1.8-1.4
			c-2.3,12.8-3.7,25.7-4,38.6c-0.3,12.4,0,25.1,1.9,37.3c1.4,8.9,4.8,19.1,13.9,22.9c8.6,3.5,20-0.4,23.4-9.4
			c1.7-4.6,0-9.3-3.6-12.4c-3.9-3.3-8.8-5-13.6-6.5c-11.6-3.8-23.7-5.9-35.9-7.2c-12.4-1.3-24.9-1.6-37.3-1.6c-3.1,0-6.1,0-9.1,0
			c-2.5,0-5,0-7.4,0.7c-4.9,1.4-7.3,6-5.6,10.8c1.8,4.9,6.1,8.4,10.2,11.4c4.3,3.2,9,6,13.7,8.6c9.6,5.2,19.8,9.6,29,15.5
			c2.3,1.5,4.5,3,6.6,4.7c0.3-0.7,0.6-1.4,0.9-2.1c-13.9,1.7-27.8,3.5-41.7,5.2c-2.5,0.3-4.8,0.7-6.7,2.4c-1.4,1.3-2.3,3.3-0.9,5
			c1.8,2.1,5.6,1.6,8,1.7c3.4,0.1,6.7,0.2,10.1,0.2c13.5,0.1,27-0.8,40.4-2.5c12.1-1.6,24.5-3.5,36.2-7.2c10.5-3.3,21.1-8.8,26.4-19
			c0.7-1.4-1.4-2.7-2.2-1.3c-4.4,8.3-12.6,13.4-21.2,16.6c-10.2,3.8-21.2,5.7-31.9,7.3c-12.3,1.9-24.7,3.1-37.1,3.4
			c-6.2,0.2-12.4,0.2-18.6,0c-1.6-0.1-3.1-0.1-4.6-0.2c-0.8,0-3.4,0.2-3.7-0.9c-0.1-0.7,0.8-1.4,1.3-1.7c1-0.7,2.1-1.1,3.2-1.2
			c7.1-1.1,14.2-1.8,21.4-2.7c7.2-0.9,14.4-1.8,21.6-2.7c0.9-0.1,1.8-1.4,0.9-2.1c-16-12.6-36.4-18-52.2-31
			c-3.3-2.7-8.2-7.1-7.1-11.9c1.1-5,8.1-4.5,11.9-4.6c11.5,0,22.9,0,34.4,0.7c11.5,0.7,23,2,34.2,4.6c5.6,1.3,11.1,2.9,16.4,4.8
			c3.8,1.4,8.2,3.4,10.4,7.1c2.7,4.3,0.4,9.4-3.1,12.5c-3.3,2.8-7.7,4-11.9,3.6c-9.6-0.8-14.1-10.1-16-18.4
			c-1.1-5.1-1.5-10.3-1.9-15.4c-0.4-6-0.7-12.1-0.7-18.1c0-12.1,0.8-24.3,2.6-36.3c0.4-2.9,0.9-5.8,1.4-8.7c0.2-0.9-0.9-2.1-1.8-1.4
			c-13.8,10.6-27.7,21.1-41.8,31.3c-14,10.1-28.4,19.8-43.2,28.7c-15,9-30.6,17.1-46.3,24.8c-7.9,3.8-15.8,7.6-23.8,11.3
			c-7.8,3.6-15.6,7.4-23.5,10.7c-9.8,4.1-20.2,6.5-30.1,10.7c-1.9,0.8-3.8,1.7-5.7,2.5c0.5,0.6,1,1.3,1.5,2
			c9.2-7.8,19.5-13.9,30.5-18.8c9.5-4.2,19.2-8,28.1-13.6c6.1-3.8,11.8-8.3,17-13.3c0.8-0.8,0-2.6-1.2-2.1c-12,5-23,14.1-29.2,25.8
			c-1.6,3.1-2.7,6.5-1.8,10c0.6,2.7,2.3,5.1,4.3,6.9c2.2,2,4.8,3.6,7.5,5.1c3.3,1.8,6.7,3.4,10.1,5.1c27.4,13.2,56.5,22.5,86.1,29.1
			c16.7,3.7,33.6,6.5,50.6,8.7c0-0.8,0-1.7,0-2.5c-25,1.3-50.1,0.7-75-1.8c-3.5-0.4-6.9-0.7-10.4-1.2c-2.4-0.3-5.2-0.8-6.5-3.1
			c-0.2,0.6-0.3,1.1-0.4,1.7c7.3-3.1,15.3-3.2,23.1-2.8c8.3,0.4,16.7,1.2,25,2.1c16.5,1.8,32.9,3.9,49.5,4c9.2,0.1,18.4-0.5,27.5-2
			c1.1-0.2,1.2-1.8,0.3-2.3c-19-10.9-38.6-20.9-58.2-30.5c-19.6-9.6-39.4-18.9-58.9-28.8c-19.5-9.8-38.7-20.1-57.2-31.7
			c-2.3-1.5-4.7-2.9-7-4.4c-1.3-0.8-5.4-2.9-3.8-5c1.3-1.6,4.7-1.8,6.5-2.1c2.8-0.6,5.6-1.1,8.4-1.6c11.5-2.1,23.1-3.9,34.7-5.3
			c23.1-2.8,46.4-4.1,69.8-4.1c11.6,0,23.1,0.4,34.7,1.1c11.5,0.7,23.2,1.4,34.5,4.1c3.8,0.9,9.8,1.9,11.7,5.9c1.2,2.4-0.2,5-1.7,7
			c-1.6,2.1-3.4,3.9-5.4,5.7c-3.9,3.4-8.2,6.2-12.6,8.8c-4.8,2.8-9.7,5.5-14.6,8.2c-10.1,5.5-20.3,10.7-30.7,15.5
			c-10.2,4.8-20.5,9.9-31.5,12.5c-2.6,0.6-5.3,1.2-7.9,1.3c-1.3,0-2.1-0.4-2.3-1.7c-0.1-1.1,0.1-2.4,0.2-3.5
			c0.7-4.8,2.5-9.4,4.8-13.7c2.3-4.4,5-8.6,7.7-12.9c1.3-2.1,2.6-4.1,3.8-6.2c1.1-1.8,2.6-4.1,1.1-6.1c-1.2-1.6-3.4-1.8-5.2-2
			c-2.9-0.3-5.7-0.6-8.6-0.8c-5.7-0.4-11.5-0.5-17.2-0.4c-11.2,0.2-22.5,1.4-33.5,3.6c-5.5,1.1-10.9,2.4-16.2,3.9
			c0.3,0.8,0.6,1.5,1,2.3c19.7-8.7,37-22.7,49.8-40c3.6-4.9,6.9-10.1,9.8-15.6c0.5-1-0.3-2.1-1.4-1.8c-14.4,3.1-28.7,6.4-42.9,10
			c-7,1.8-13.9,3.6-20.8,5.4c-7,1.9-14,4-21,5.6c-7.8,1.8-15.9,2.9-23.9,1.9c0.4,0.5,0.8,1,1.2,1.6c2-12.1,8.3-23.2,17.7-31
			C60.8,22.3,59,20.6,57.8,21.6L57.8,21.6z"/>
	</g>
</g>
<rect x="48.1" y="33" class="st1" width="25.4" height="42.5"/>
<linearGradient id="SVGID_1_" gradientUnits="userSpaceOnUse" x1="172.82" y1="88.67" x2="252.99" y2="88.67" gradientTransform="matrix(1 0 0 -1 0 202.315)">
	<stop  offset="7.448676e-03" style="stop-color:#FCEA10"/>
	<stop  offset="1" style="stop-color:#36A9E1"/>
</linearGradient>
<polygon class="st2" points="197.6,151.1 172.8,119.1 188.1,81.7 228.2,76.2 253,108.2 237.7,145.6 "/>
</svg>
